<svg xmlns="http://www.w3.org/2000/svg" viewBox="0 0 288 59" xmlns:xlink="http://www.w3.org/1999/xlink">
  <path fill="#F8E418" fill-rule="nonzero" d="M17.76346 41.2144l.00622-.00622c-2.9796-2.9874-4.82628-7.1091-4.82628-11.65043 0-4.54964 1.8467-8.67133 4.83043-11.65457l-.0083-.0083c2.52727-2.53037 2.52727-6.63128 0-9.15748-2.52726-2.53035-6.62317-2.53035-9.15043 0C3.29084 14.06402 0 21.42656 0 29.55775c0 8.1312 3.29084 15.48958 8.6151 20.8162 2.52726 2.53035 6.62317 2.53035 9.15043 0 2.52727-2.5262 2.52727-6.6271 0-9.15746-.00083-.0009-.00166-.0013-.00207-.0021" mask="url(#b)"/>
  <path fill="#56AED2" fill-rule="nonzero" d="M17.76553 17.89653l.00623.00623c2.98374-2.98324 7.1004-4.83218 11.6362-4.83218 4.5441 0 8.66074 1.84894 11.64034 4.83634l.0083-.0083c2.52726 2.53034 6.62317 2.53034 9.14628 0 2.52726-2.53037 2.52726-6.63128 0-9.16163C44.88278 3.4062 37.52922.1113 29.40795.1113 21.2867.11132 13.9373 3.4062 8.61718 8.737c-2.52727 2.53034-2.52727 6.63125 0 9.1616 2.5231 2.53036 6.61902 2.53036 9.14628 0l.00207-.00207"/>
  <path fill="#E0534E" fill-rule="nonzero" d="M41.05452 41.21524l-.00622-.00665c-2.98375 2.9832-7.1004 4.8321-11.6362 4.8321-4.5441 0-8.66075-1.849-11.64034-4.8364l-.0083.0083c-2.52726-2.5304-6.62317-2.5304-9.14628 0-2.52727 2.5303-2.52727 6.6312 0 9.1616C13.93728 55.7051 21.29084 59 29.4121 59c8.12127 0 15.47067-3.29486 20.79078-8.62563 2.52726-2.53036 2.52726-6.63127 0-9.16162-2.5231-2.53036-6.61902-2.53036-9.14628 0-.00083.00083-.00125.00166-.00208.0025"/>
  <path fill="#1D78A4" fill-rule="nonzero" d="M17.76553 17.89487c-2.52726 2.53035-6.62317 2.53035-9.15043 0-2.52726-2.53036-2.52726-6.63127 0-9.15747 2.52726-2.53035 6.62317-2.53035 9.15043 0 2.52727 2.5262 2.52727 6.6271 0 9.15747"/>
  <path fill="#BE433B" fill-rule="nonzero" d="M17.76553 50.37395c-2.52726 2.53035-6.62317 2.53035-9.15043 0-2.52726-2.5262-2.52726-6.6271 0-9.15746 2.52726-2.5304 6.62317-2.5304 9.15043 0 2.52727 2.5303 2.52727 6.6312 0 9.1574"/>
  <path fill="#272B2F" fill-rule="nonzero" d="M166.2864 26.2712h13.78373c-.52454-3.4332-3.36802-4.7923-6.64226-4.7923-3.3232 0-6.13058 1.54814-7.14148 4.7923zm-67.34637-4.3664c4.17767 0 6.98795 3.6501 6.98795 7.6384 0 4.20688-2.5783 7.58193-6.98795 7.58193-4.41005 0-6.98628-3.3767-6.98628-7.58192 0-4.1487 2.6227-7.6384 6.98628-7.6384zm67.20817 10.1081c.6013 3.73362 4.15276 5.27178 7.65316 5.27178 1.64708 0 3.5498-.4213 5.04332-1.12682.25605-.1209.49757-.22852.7424-.3702.8279-.47865 1.58733-.76285 2.32932-.00374.40005.40926.8005.81685 1.20803 1.21947.38552.3826.73328.7653 1.07066 1.1903 1.1221 1.4168.3348 1.7517-.9346 2.6109-2.7248 1.8435-6.2978 2.7576-9.5667 2.7576-8.7932 0-14.6432-5.325-14.6432-14.2336 0-8.4005 5.8139-13.9668 14.1638-13.9668 8.5478 0 13.431 5.0249 13.5858 13.5671.0419 2.3371.146 3.0838-2.2895 3.0838H166.148zM98.8865 15.62877c-8.09512 0-13.7883 5.88255-13.7883 13.91444 0 8.142 5.64628 13.9124 13.84183 13.9124 8.18435 0 13.89787-5.762 13.89787-13.9123 0-8.0522-5.88366-13.9144-13.9514-13.9144zm96.51735 3.8645c2.43348-2.31347 5.06905-3.7569 8.5126-3.7569 7.4519 0 11.33367 6.1144 11.33367 13.11048V40.6319c0 1.22902-1.0055 2.23492-2.23345 2.23492h-2.39073c-1.22753 0-2.23304-1.0059-2.23304-2.23493V28.8996c0-3.87695-2.0849-6.88637-6.18495-6.88637-4.00378 0-6.55967 3.39832-6.55967 7.20714v11.42855c0 1.21823-.99597 2.2179-2.2127 2.2179h-2.37372c-1.21757 0-2.2156-.99884-2.2156-2.2179v-22.3211c0-1.21824.99886-2.21667 2.2156-2.21667h2.02305c1.2355 0 2.1086 1.01672 2.214 2.20087l.105 1.18125zm-73.90146-.00166c2.4334-2.3126 5.0702-3.7552 8.5138-3.7552 7.4506 0 11.3328 6.1148 11.3328 13.1105v11.7854c0 1.2295-1.0064 2.2346-2.2331 2.2346h-2.3919c-1.2271 0-2.2314-1.0059-2.2314-2.2345V28.8996c0-3.87778-2.0862-6.88637-6.1866-6.88637-4.0034 0-6.5576 3.39998-6.5576 7.20797v11.42772c0 1.2199-.9981 2.2179-2.2165 2.2179h-2.3721c-1.2201 0-2.2156-.9976-2.2156-2.2179V18.3278c0-1.21988.9972-2.21665 2.2156-2.21665h2.0226c1.2337 0 2.1102 1.01838 2.2156 2.2017l.1042 1.17876zm29.9395-3.2749h5.1026c1.2184 0 2.2139.9997 2.2139 2.2196v1.5182c0 1.2199-.9956 2.2175-2.214 2.2175h-5.1027v11.2204c0 2.1581 1.0341 3.405 3.2207 3.405h1.0358c1.2196 0 2.2185.9939 2.2185 2.2175v1.5187c0 1.2216-1.0001 2.2179-2.2185 2.2179h-1.5346c-6.0132 0-9.5244-2.5773-9.5244-9.359V11.6409c0-1.2203.9988-2.22 2.2177-2.22h2.37c1.2192 0 2.2148.99965 2.2148 2.21996v4.57582zm73.7894 0h5.1018c1.2184 0 2.2147.9997 2.2147 2.2196v1.5182c0 1.2199-.9964 2.2175-2.2148 2.2175h-5.1019v11.2204c0 2.1581 1.0333 3.4029 3.2203 3.4029h1.0354c1.2204 0 2.2168.9976 2.2168 2.2196v1.5187c0 1.2207-.9985 2.2179-2.2169 2.2179h-1.9704c-.3747.0087-.7221-.0062-1.0935-.0232-5.5235-.3398-7.9951-3.9256-7.9951-9.3357V11.6409c0-1.2203.9972-2.21874 2.2156-2.21874h2.3716c1.2204 0 2.216.99843 2.216 2.21874v4.5758zm16.6612.0158h4.664c1.2325 0 2.216 1.0325 2.216 2.2578v1.5481c0 1.2253-.9827 2.2578-2.2161 2.2578h-4.6641v18.3361c0 1.2311-1.0039 2.2346-2.233 2.2346h-2.3903c-1.2276 0-2.2339-1.005-2.2339-2.2345V15.3001c0-5.53934 3.1041-9.89287 8.752-10.42304.1548-.01413.3071-.0241.4581-.03117.3316-.0308.6735-.0216 1.001-.0117h2.1774c1.2329 0 2.2152 1.0337 2.2152 2.259v1.4065c0 1.2253-.9815 2.2573-2.2152 2.2573l-1.5957-.0017c-.0535.0083-.10204.0095-.1556.0095-2.6692 0-3.7801 2.0662-3.7801 4.5351v.9324zm28.7448 23.3005c-2.5912 2.4751-5.0936 3.7632-8.7844 3.7632-7.4822 0-11.0652-6.1896-11.0652-13.1129v-11.783c0-1.2286 1.0042-2.237 2.2318-2.237h2.3923c1.2275 0 2.233 1.0084 2.233 2.237v11.7314c0 3.8766 2.0815 6.8868 6.1816 6.8868 4.0125 0 6.5613-3.4108 6.5613-7.235l.0029-4.2131c-.0386-.1649-.0564-.3245-.0564-.494v-6.6762c0-1.2294 1.0047-2.237 2.233-2.237h2.3886c1.2288 0 2.2347 1.0068 2.2347 2.237V40.649c0 1.2199-.9985 2.2179-2.2165 2.2179h-2.0218c-1.23586 0-2.11147-1.01755-2.21605-2.20337l-.09917-1.13055zm12.6006 3.3339c-1.2267 0-2.2331-1.005-2.2331-2.2345V11.623c0-1.2282 1.0063-2.23577 2.233-2.23577h2.3911c1.2271 0 2.233 1.00674 2.233 2.23577v29.0093c0 1.22945-1.0068 2.23452-2.233 2.23452h-2.3911zM79.0986 35.6531c1.8496-1.43672 2.11644-.6128 3.70417.9577.8055.7953 2.95552 2.1523 1.53254 3.331-2.9331 2.4282-5.5716 3.5309-9.3741 3.5309-8.5171 0-14.5456-6.3562-14.0933-14.7691.2034-3.78843 1.6687-7.35793 4.6068-9.83593 2.6974-2.27566 6.0451-3.2845 9.5522-3.21883 1.7853.0349 3.3743.2975 5.0309.96146 1.0707.4288 2.1164.92366 3.036 1.62834 1.8675 1.42806 1.0097 2.27525-.451 3.7386-.3274.3274-.6424.66647-.9657.99803-.7274.74414-1.2462 1.2818-2.2533.59165-1.9052-1.30504-4.3208-2.00723-6.6028-1.416-7.3382 1.9017-6.9468 14.9889 2.0335 14.9889 1.4931 0 3.0672-.5713 4.2445-1.4866z"/>
</svg>
